<svg width="47" height="47" viewBox="0 0 47 47" fill="none" xmlns="http://www.w3.org/2000/svg">
<path d="M29.8197 46.4999H16.8075C13.9448 46.4999 11.5592 46.2179 9.54228 45.6107C8.80491 45.3938 8.3278 44.6781 8.37117 43.9191C8.91335 37.4346 15.4845 32.3382 23.3135 32.3382C31.1426 32.3382 37.6921 37.413 38.256 43.9191C38.321 44.6998 37.8439 45.3938 37.0849 45.6107C35.068 46.2179 32.6824 46.4999 29.8197 46.4999ZM11.8628 42.8347C13.2942 43.1167 14.9207 43.2468 16.8075 43.2468H29.8197C31.7065 43.2468 33.333 43.1167 34.7643 42.8347C33.6149 38.6708 28.8654 35.5912 23.3135 35.5912C17.7617 35.5912 13.0122 38.6708 11.8628 42.8347Z" fill="#FAFAFA"/>
<path d="M29.819 1.50014H16.8067C5.96316 1.50014 1.62573 5.83756 1.62573 16.6811V29.6934C1.62573 37.8911 4.09807 42.3804 9.99697 44.0503C10.4741 38.4116 16.2645 33.9658 23.3129 33.9658C30.3612 33.9658 36.1516 38.4116 36.6288 44.0503C42.5277 42.3804 45 37.8911 45 29.6934V16.6811C45 5.83756 40.6626 1.50014 29.819 1.50014ZM23.3129 27.8934C19.0188 27.8934 15.5489 24.4017 15.5489 20.1077C15.5489 15.8137 19.0188 12.3437 23.3129 12.3437C27.6069 12.3437 31.0769 15.8137 31.0769 20.1077C31.0769 24.4017 27.6069 27.8934 23.3129 27.8934Z" stroke="#FAFAFA" stroke-width="3" stroke-linecap="round" stroke-linejoin="round"/>
<path d="M23.3122 29.5197C18.129 29.5197 13.9217 25.2907 13.9217 20.1075C13.9217 14.9243 18.129 10.717 23.3122 10.717C28.4954 10.717 32.7027 14.9243 32.7027 20.1075C32.7027 25.2907 28.4954 29.5197 23.3122 29.5197ZM23.3122 13.97C19.929 13.97 17.1748 16.7244 17.1748 20.1075C17.1748 23.5124 19.929 26.2667 23.3122 26.2667C26.6954 26.2667 29.4496 23.5124 29.4496 20.1075C29.4496 16.7244 26.6954 13.97 23.3122 13.97Z" fill="#FAFAFA"/>
</svg>
